<?xml version="1.0" standalone="no"?>
<!DOCTYPE svg PUBLIC "-//W3C//DTD SVG 1.1//EN" "http://www.w3.org/Graphics/SVG/1.1/DTD/svg11.dtd">
<svg version="1.1" fill="rgb(30,30,30)" viewBox="0 0 960 600" xmlns="http://www.w3.org/2000/svg">
    <path d="m-722.854572,364.621429zm1562.27068,-128.99198l5.02119,52.24276l13.96083,20.71588l2.52732,11.40222l-27.74884,34.24101l-3.88348,12.06284l-13.17078,5.5597l-6.73168,16.97896l-25.42828,29.00789l-7.07159,29.49064l9.19502,22.84133l18.44491,24.99171l-3.47922,3.17354l20.02995,30.26682l3.30293,23.8919l-3.26738,16.15392l-13.28706,4.7162l-8.33913,-14.9308l-6.67969,-1.11219l-10.89393,-18.68625l-18.83764,-19.53213l-0.2826,-24.25374l-31.37932,-23.12912l-23.96353,13.01523l-19.66681,-16.00921l-36.64183,7.85628l-14.5452,-0.13891l-10.87687,14.24767l-13.52436,18.01125l-21.88724,-2.883l-10.67127,-11.55985l-4.3713,5.73762l-23.66343,-3.21715l-31.55359,10.39041l-13.87068,14.68928l-32.14422,16.1553l-6.49548,28.26162l2.57714,21.8168l-34.48313,-12.91818l-11.78371,-28.14028l-18.44534,-33.47322l-15.11092,-15.69549l-17.00245,-2.96966l-20.16576,19.19403l-23.18025,-16.21371l-5.61633,-20.66598l-29.17539,-30.45922l-32.65564,-3.45713l-55.71927,3.46668l-66.11015,-37.234l1.25543,-4.87565l-44.95535,-4.64089l-3.17145,-19.30173l-15.71762,-19.71883l-16.97515,-12.73115l-18.39615,-7.64918l3.13133,-12.89587l-15.52657,-31.25118l4.6473,-10.86871l-5.93126,-5.78742l-1.22335,-19.97861l-13.75729,-30.07123l3.56008,-19.93107l-5.69701,-12.78508l11.89124,-23.26819l1.11179,-33.88481l11.09609,-16.75825l15.51369,-37.92481l4.18811,-20.24226l2.74487,-45.87544l25.16039,13.74094l3.01401,16.87185l5.05077,-12.65158l-2.21318,-23.80567l62.55022,15.17081l48.77103,9.79094l62.21482,9.96165l59.14076,6.89123l89.34619,5.72335l89.37854,0.13635l21.55792,9.75116l17.11268,-1.3119l16.80309,9.99287l9.92177,-4.76356l24.53045,3.60635l13.88297,-8.79485l68.93773,31.4426l5.00371,10.24482l25.45402,13.92215l12.32397,36.69281l-2.68793,24.03349l-7.6864,7.71524l1.80887,10.35487l10.9391,2.3987l17.23816,-15.47518l16.23169,-6.69167l18.15437,-13.55577l-5.39674,-14.26998l6.92815,-5.36322l29.88408,-6.46359l17.16137,-31.85048l8.36837,-6.27454l50.0796,-13.65263l13.01293,-24.62525l-1.2353,-18.77926l6.07192,-19.34821l24.28897,1.69817l9.40053,28.59245l15.3255,9.72748l1.59617,9.7738l-21.43384,14.42816l-4.35977,10.44608l-11.84208,5.79547l-6.58527,25.52663l0.88984,14.25217l13.12802,8.98838l-15.25055,13.27666l-21.96373,8.7282l-11.14048,8.88452l-7.13939,14.6085l6.33471,2.6273l-2.41243,22.60055l-7.66045,5.93387l-11.43282,-3.57192l-5.60028,3.45878"/>
</svg>
